<?xml version="1.0" encoding="UTF-8" standalone="no"?>
<svg
   xmlns:dc="http://purl.org/dc/elements/1.1/"
   xmlns:cc="http://creativecommons.org/ns#"
   xmlns:rdf="http://www.w3.org/1999/02/22-rdf-syntax-ns#"
   xmlns:svg="http://www.w3.org/2000/svg"
   xmlns="http://www.w3.org/2000/svg"
   width="297mm"
   height="53mm"
   viewBox="0 0 297 53"
   version="1.1"
   id="svg947">
  <defs
     id="defs941" />
  <metadata
     id="metadata944">
    <rdf:RDF>
      <cc:Work
         rdf:about="">
        <dc:format>image/svg+xml</dc:format>
        <dc:type
           rdf:resource="http://purl.org/dc/dcmitype/StillImage" />
        <dc:title></dc:title>
      </cc:Work>
    </rdf:RDF>
  </metadata>
  <g
     id="layer1">
    <g
       transform="matrix(0.12651645,0,0,0.12651645,164.60456,-16.616217)"
       id="g939">
      <path
         d="m -1210.5075,408.00966 a 233.09019,233.09019 0 0 1 -10.8882,64.43363 c -0.1518,0.48407 -0.3107,0.96091 -0.4696,1.44501 h -40.6341 c 0.043,-0.43353 0.087,-0.91761 0.13,-1.44501 2.7094,-31.14753 18.3302,-220.72023 -0.3468,-253.13941 1.6329,2.62997 55.3588,89.73603 52.2087,188.70578 z"
         fill="#e6e6e6"
         id="path863"
         style="stroke-width:0.644518" />
      <path
         d="m -1213.5565,472.44329 c -0.3396,0.48407 -0.6936,0.96814 -1.0548,1.44501 h -30.4828 c 0.2312,-0.41185 0.4985,-0.89588 0.8092,-1.44501 5.0359,-9.08922 19.9413,-36.26289 33.7774,-64.43363 14.8693,-30.27327 28.5104,-61.69532 27.3615,-73.06766 0.354,2.56491 10.6426,80.75516 -30.4105,137.50129 z"
         fill="#e6e6e6"
         id="path865"
         style="stroke-width:0.644518" />
      <rect
         x="-1262.3799"
         y="473.88831"
         width="2250.1399"
         height="4.5734553"
         fill="#2f2e41"
         id="rect877"
         style="stroke-width:2.28673" />
      <text
         xml:space="preserve"
         style="font-style:normal;font-weight:normal;font-size:66.9215px;line-height:1.25;font-family:sans-serif;fill:#000000;fill-opacity:1;stroke:none;stroke-width:2.0913"
         x="-1258.2454"
         y="214.80174"
         id="text1600"><tspan
           id="tspan1598"
           x="-1258.2454"
           y="214.80174"
           style="font-style:normal;font-variant:normal;font-weight:bold;font-stretch:normal;font-size:66.9215px;font-family:Poppins;-inkscape-font-specification:'Poppins Bold';stroke-width:2.0913">Kodlama.io</tspan></text>
      <g
         id="g1854"
         transform="matrix(0.46912727,0,0,0.46912727,516.82584,146.42811)">
        <path
           id="path1604"
           fill="#f2f2f2"
           transform="translate(-82.63,-96.65)"
           d="M 737.11,294.39 H 608.76 v -27.76 a 6.64,6.64 0 0 0 -6.64,-6.64 h -37.69 v -29.57 a 4.18,4.18 0 0 0 -4.18,-4.18 H 511.7 a 4.18,4.18 0 0 0 -4.18,4.18 V 260 h -44.31 a 6.64,6.64 0 0 0 -6.64,6.64 V 294.4 H 334.18 a 1.35,1.35 0 0 0 -1.34,1.35 v 368.51 a 1.35,1.35 0 0 0 1.34,1.35 h 81.34 a 1.35,1.35 0 0 0 1.35,-1.35 v -49.58 a 1.36,1.36 0 0 1 1.35,-1.35 h 34.36 a 1.36,1.36 0 0 1 1.35,1.35 v 49.58 a 1.35,1.35 0 0 0 1.34,1.35 H 616 a 1.36,1.36 0 0 0 1.35,-1.35 v -49.58 a 1.35,1.35 0 0 1 1.34,-1.35 h 34.36 a 1.35,1.35 0 0 1 1.35,1.35 v 49.58 a 1.36,1.36 0 0 0 1.35,1.35 h 81.34 a 1.36,1.36 0 0 0 1.35,-1.35 V 295.74 a 1.36,1.36 0 0 0 -1.33,-1.35 z m -334.8,301.72 a 1.34,1.34 0 0 1 -1.34,1.34 h -50.24 a 1.34,1.34 0 0 1 -1.35,-1.34 V 579 a 1.35,1.35 0 0 1 1.35,-1.35 H 401 a 1.35,1.35 0 0 1 1.34,1.35 z m 0,-44.34 a 1.34,1.34 0 0 1 -1.34,1.35 h -50.24 a 1.34,1.34 0 0 1 -1.35,-1.35 v -17.15 a 1.34,1.34 0 0 1 1.35,-1.35 H 401 a 1.34,1.34 0 0 1 1.34,1.35 z m 0,-44.33 a 1.35,1.35 0 0 1 -1.34,1.35 h -50.24 a 1.35,1.35 0 0 1 -1.35,-1.35 v -17.16 a 1.35,1.35 0 0 1 1.35,-1.35 H 401 a 1.35,1.35 0 0 1 1.34,1.35 z m 0,-44.34 a 1.34,1.34 0 0 1 -1.34,1.35 h -50.24 a 1.34,1.34 0 0 1 -1.35,-1.35 V 446 a 1.34,1.34 0 0 1 1.35,-1.35 H 401 a 1.34,1.34 0 0 1 1.34,1.35 z m 0,-44.33 a 1.35,1.35 0 0 1 -1.34,1.35 h -50.24 a 1.35,1.35 0 0 1 -1.35,-1.35 v -17.16 a 1.34,1.34 0 0 1 1.35,-1.34 H 401 a 1.34,1.34 0 0 1 1.34,1.34 z m 0,-44.33 a 1.34,1.34 0 0 1 -1.34,1.34 h -50.24 a 1.34,1.34 0 0 1 -1.35,-1.34 v -17.16 a 1.35,1.35 0 0 1 1.35,-1.35 H 401 a 1.35,1.35 0 0 1 1.34,1.35 z m 0,-44.34 a 1.34,1.34 0 0 1 -1.34,1.35 h -50.24 a 1.34,1.34 0 0 1 -1.35,-1.35 V 313 a 1.34,1.34 0 0 1 1.35,-1.35 H 401 a 1.34,1.34 0 0 1 1.34,1.35 z m 119.11,266 a 1.34,1.34 0 0 1 -1.35,1.34 h -50.24 a 1.35,1.35 0 0 1 -1.35,-1.34 V 579 a 1.36,1.36 0 0 1 1.35,-1.35 h 50.24 a 1.35,1.35 0 0 1 1.35,1.35 z m 0,-44.34 a 1.34,1.34 0 0 1 -1.35,1.35 h -50.24 a 1.35,1.35 0 0 1 -1.35,-1.35 v -17.14 a 1.35,1.35 0 0 1 1.35,-1.35 h 50.24 a 1.34,1.34 0 0 1 1.35,1.35 z m 0,-44.33 a 1.35,1.35 0 0 1 -1.35,1.35 h -50.24 a 1.36,1.36 0 0 1 -1.35,-1.35 v -17.15 a 1.36,1.36 0 0 1 1.35,-1.35 h 50.24 a 1.35,1.35 0 0 1 1.35,1.35 z m 0,-44.34 a 1.34,1.34 0 0 1 -1.35,1.35 h -50.24 a 1.35,1.35 0 0 1 -1.35,-1.35 V 446 a 1.35,1.35 0 0 1 1.35,-1.35 h 50.24 a 1.34,1.34 0 0 1 1.35,1.35 z m 0,-44.33 a 1.35,1.35 0 0 1 -1.35,1.35 h -50.24 a 1.36,1.36 0 0 1 -1.35,-1.35 v -17.15 a 1.35,1.35 0 0 1 1.35,-1.34 h 50.24 a 1.34,1.34 0 0 1 1.35,1.34 z m 0,-44.33 a 1.34,1.34 0 0 1 -1.35,1.34 h -50.24 a 1.35,1.35 0 0 1 -1.35,-1.34 v -17.15 a 1.36,1.36 0 0 1 1.35,-1.35 h 50.24 a 1.35,1.35 0 0 1 1.35,1.35 z m 0,-44.34 a 1.34,1.34 0 0 1 -1.35,1.35 h -50.24 a 1.35,1.35 0 0 1 -1.35,-1.35 V 313 a 1.35,1.35 0 0 1 1.35,-1.35 h 50.24 a 1.34,1.34 0 0 1 1.35,1.35 z m 81.39,266 a 1.34,1.34 0 0 1 -1.35,1.34 h -50.24 a 1.35,1.35 0 0 1 -1.35,-1.34 V 579 a 1.36,1.36 0 0 1 1.35,-1.35 h 50.24 a 1.35,1.35 0 0 1 1.35,1.35 z m 0,-44.34 a 1.34,1.34 0 0 1 -1.35,1.35 h -50.24 a 1.35,1.35 0 0 1 -1.35,-1.35 v -17.13 a 1.35,1.35 0 0 1 1.35,-1.35 h 50.24 a 1.34,1.34 0 0 1 1.35,1.35 z m 0,-44.33 a 1.35,1.35 0 0 1 -1.35,1.35 h -50.24 a 1.36,1.36 0 0 1 -1.35,-1.35 v -17.14 a 1.36,1.36 0 0 1 1.35,-1.35 h 50.24 a 1.35,1.35 0 0 1 1.35,1.35 z m 0,-44.34 a 1.34,1.34 0 0 1 -1.35,1.35 h -50.24 a 1.35,1.35 0 0 1 -1.35,-1.35 V 446 a 1.35,1.35 0 0 1 1.35,-1.35 h 50.24 a 1.34,1.34 0 0 1 1.35,1.35 z m 0,-44.33 a 1.35,1.35 0 0 1 -1.35,1.35 h -50.24 a 1.36,1.36 0 0 1 -1.35,-1.35 v -17.14 a 1.35,1.35 0 0 1 1.35,-1.34 h 50.24 a 1.34,1.34 0 0 1 1.35,1.34 z m 0,-44.33 a 1.34,1.34 0 0 1 -1.35,1.34 h -50.24 a 1.35,1.35 0 0 1 -1.35,-1.34 v -17.14 a 1.36,1.36 0 0 1 1.35,-1.35 h 50.24 a 1.35,1.35 0 0 1 1.35,1.35 z m 0,-44.34 a 1.34,1.34 0 0 1 -1.35,1.35 h -50.24 a 1.35,1.35 0 0 1 -1.35,-1.35 V 313 a 1.35,1.35 0 0 1 1.35,-1.35 h 50.24 a 1.34,1.34 0 0 1 1.35,1.35 z m 119.11,266 a 1.35,1.35 0 0 1 -1.35,1.34 h -50.24 a 1.34,1.34 0 0 1 -1.35,-1.34 V 579 a 1.35,1.35 0 0 1 1.35,-1.35 h 50.24 a 1.36,1.36 0 0 1 1.35,1.35 z m 0,-44.34 a 1.35,1.35 0 0 1 -1.35,1.35 h -50.24 a 1.34,1.34 0 0 1 -1.35,-1.35 v -17.12 a 1.34,1.34 0 0 1 1.35,-1.35 h 50.24 a 1.35,1.35 0 0 1 1.35,1.35 z m 0,-44.33 a 1.36,1.36 0 0 1 -1.35,1.35 h -50.24 a 1.35,1.35 0 0 1 -1.35,-1.35 v -17.13 a 1.35,1.35 0 0 1 1.35,-1.35 h 50.24 a 1.36,1.36 0 0 1 1.35,1.35 z m 0,-44.34 a 1.35,1.35 0 0 1 -1.35,1.35 H 670.33 A 1.34,1.34 0 0 1 669,463.1 V 446 a 1.34,1.34 0 0 1 1.35,-1.35 h 50.24 a 1.35,1.35 0 0 1 1.35,1.35 z m 0,-44.33 a 1.36,1.36 0 0 1 -1.35,1.35 h -50.24 a 1.35,1.35 0 0 1 -1.35,-1.35 v -17.13 a 1.34,1.34 0 0 1 1.35,-1.34 h 50.24 a 1.35,1.35 0 0 1 1.35,1.34 z m 0,-44.33 a 1.35,1.35 0 0 1 -1.35,1.34 h -50.24 a 1.34,1.34 0 0 1 -1.35,-1.34 v -17.13 a 1.35,1.35 0 0 1 1.35,-1.35 h 50.24 a 1.36,1.36 0 0 1 1.35,1.35 z m 0,-44.34 a 1.35,1.35 0 0 1 -1.35,1.35 H 670.33 A 1.34,1.34 0 0 1 669,330.1 V 313 a 1.34,1.34 0 0 1 1.35,-1.35 h 50.24 a 1.35,1.35 0 0 1 1.35,1.35 z" />
        <path
           id="path1606"
           fill="#f2f2f2"
           transform="translate(-82.63,-96.65)"
           d="m 349.78,140.89 -15.52,9.84 9.42,-17.14 a 15.35,15.35 0 0 0 -9.38,-3.35 h -0.25 A 18.09,18.09 0 0 1 330.83,130 l -5.26,3.33 2.25,-4.1 a 18.66,18.66 0 0 1 -9.2,-7 l -9.41,6 5.94,-10.81 c -5.5,-6.61 -12.92,-10.66 -21.09,-10.66 -9.79,0 -18.51,5.82 -24.14,14.89 a 18,18 0 0 1 -16,8.6 h -0.52 c -10.81,0 -19.57,12.26 -19.57,27.37 0,15.11 8.8,27.38 19.61,27.38 a 14.72,14.72 0 0 0 6.81,-1.71 28.21,28.21 0 0 1 23.69,-0.46 24.66,24.66 0 0 0 20.14,0 28.23,28.23 0 0 1 23.47,0.46 14.72,14.72 0 0 0 6.75,1.71 c 10.81,0 19.57,-12.26 19.57,-27.38 a 34.7,34.7 0 0 0 -4.09,-16.73 z" />
        <path
           id="path1608"
           opacity="0.03"
           transform="translate(-82.63,-96.65)"
           d="m 320.53,180.94 a 28.89,28.89 0 0 0 -16.77,1.82 24.69,24.69 0 0 1 -20.13,0 28.28,28.28 0 0 0 -23.69,0.46 14.61,14.61 0 0 1 -6.82,1.71 c -9.6,0 -17.59,-9.67 -19.25,-22.43 a 18.43,18.43 0 0 0 4.8,-5.18 c 5.63,-9.07 14.35,-14.89 24.14,-14.89 9.79,0 18.4,5.75 24,14.73 a 18.48,18.48 0 0 0 15.95,8.76 h 0.25 c 7.68,-0.05 14.3,6.08 17.52,15.02 z" />
        <path
           id="path1610"
           fill="#f2f2f2"
           transform="translate(-82.63,-96.65)"
           d="m 896.76,113.68 -7.76,4.91 4.7,-8.55 a 7.67,7.67 0 0 0 -4.68,-1.67 h -0.12 a 8.6,8.6 0 0 1 -1.61,-0.12 l -2.62,1.67 1.12,-2 a 9.4,9.4 0 0 1 -4.59,-3.48 l -4.69,3 3,-5.39 A 13.71,13.71 0 0 0 869,96.65 c -4.88,0 -9.23,2.91 -12,7.43 a 9,9 0 0 1 -8,4.29 h -0.26 c -5.39,0 -9.76,6.11 -9.76,13.65 0,7.54 4.37,13.65 9.76,13.65 a 7.32,7.32 0 0 0 3.4,-0.85 14.08,14.08 0 0 1 11.81,-0.23 12.33,12.33 0 0 0 10.05,0 14.11,14.11 0 0 1 11.71,0.23 7.29,7.29 0 0 0 3.36,0.83 c 5.39,0 9.76,-6.11 9.76,-13.65 a 17.38,17.38 0 0 0 -2.07,-8.32 z" />
        <path
           id="path1612"
           opacity="0.03"
           transform="translate(-82.63,-96.65)"
           d="m 882.17,133.65 a 14.52,14.52 0 0 0 -8.37,0.91 12.28,12.28 0 0 1 -5,1.06 12.41,12.41 0 0 1 -5,-1.08 14.1,14.1 0 0 0 -11.82,0.23 7.29,7.29 0 0 1 -3.4,0.85 c -4.79,0 -8.77,-4.82 -9.6,-11.19 a 9.26,9.26 0 0 0 2.4,-2.58 c 2.8,-4.52 7.15,-7.43 12,-7.43 4.85,0 9.18,2.87 12,7.35 a 9.22,9.22 0 0 0 8,4.37 h 0.13 c 3.75,0 7.05,3.06 8.66,7.51 z" />
        <path
           id="path1614"
           fill="#f2f2f2"
           transform="translate(-82.63,-96.65)"
           d="m 702.45,203.61 -9.1,5.77 5.52,-10 a 9,9 0 0 0 -5.5,-2 h -0.15 a 10.79,10.79 0 0 1 -1.89,-0.14 l -3.08,2 1.32,-2.41 a 11,11 0 0 1 -5.4,-4.09 l -5.52,3.5 3.49,-6.34 a 16.15,16.15 0 0 0 -12.37,-6.26 c -5.74,0 -10.86,3.42 -14.16,8.74 a 10.56,10.56 0 0 1 -9.36,5 h -0.31 c -6.34,0 -11.47,7.19 -11.47,16 0,8.81 5.13,16.05 11.47,16.05 a 8.56,8.56 0 0 0 4,-1 16.56,16.56 0 0 1 13.89,-0.27 14.52,14.52 0 0 0 11.81,0 16.58,16.58 0 0 1 13.77,0.27 8.68,8.68 0 0 0 4,1 c 6.34,0 11.48,-7.18 11.48,-16.05 a 20.4,20.4 0 0 0 -2.44,-9.77 z" />
        <path
           id="path1616"
           opacity="0.03"
           transform="translate(-82.63,-96.65)"
           d="m 685.3,227.1 a 17,17 0 0 0 -9.84,1.07 14.52,14.52 0 0 1 -11.81,0 16.56,16.56 0 0 0 -13.89,0.27 8.59,8.59 0 0 1 -4,1 c -5.63,0 -10.32,-5.67 -11.29,-13.15 a 10.75,10.75 0 0 0 2.81,-3 c 3.3,-5.32 8.42,-8.73 14.16,-8.73 5.74,0 10.8,3.37 14.1,8.63 a 10.82,10.82 0 0 0 9.35,5.14 H 675 c 4.52,-0.07 8.41,3.53 10.3,8.77 z" />
        <path
           id="path1618"
           fill="#36334a"
           transform="translate(-82.63,-96.65)"
           d="m 1029.88,665.85 c 0,1.72 0,3.44 -0.11,5.14 a 121.57,121.57 0 0 1 -2.38,19.69 c -6.57,32.11 -25.54,57.07 -49.37,64.44 a 49.29,49.29 0 0 1 -14.64,2.23 c -36.73,0 -66.5,-41 -66.5,-91.5 0,-50.5 29.77,-91.5 66.5,-91.5 34.45,0 62.79,36.06 66.16,82.25 0.23,3.04 0.34,6.13 0.34,9.25 z" />
        <path
           id="path1620"
           opacity="0.1"
           transform="translate(-82.63,-96.65)"
           d="m 1029.77,671 a 121.57,121.57 0 0 1 -2.38,19.69 c -6.57,32.11 -25.54,57.07 -49.37,64.44 -18.45,-8.49 -32.14,-40.31 -32.14,-78.27 0,-44.46 18.8,-80.5 42,-80.5 19.47,0 35.85,25.42 40.6,59.91 0.66,4.73 1.09,9.67 1.29,14.73 z" />
        <path
           id="path1622"
           fill="#3f3d56"
           transform="translate(-82.63,-96.65)"
           d="m 695.88,463.35 c 0,0 180,-37 275,-3 0,0 14,7 0,19 0,0 13.24,14 -9.88,19 L 869.15,504 695.88,486.35 Z" />
        <path
           id="path1624"
           opacity="0.1"
           transform="translate(-82.63,-96.65)"
           d="m 727.38,468 c 0,0 154.11,-31.68 235.45,-2.57 0,0 12,6 0,16.27 0,0 11.33,12 -8.46,16.27 l -78.64,4.83 -148.35,-15.09 z" />
        <path
           id="path1626"
           fill="#6c63ff"
           transform="translate(-82.63,-96.65)"
           d="m 902.88,523.35 -12,-24 c 0,0 5.26,-24.28 -37.5,-31.42 -2.37,-10.59 -13.11,-18.58 -26,-18.58 -12.58,0 -23.1,7.6 -25.82,17.8 -6.14,0.53 -12.68,1.25 -19.68,2.2 l -9.78,52.44 -1.22,-2.44 c 0,0 6.21,-28.68 -49.76,-32.87 a 20.82,20.82 0 0 0 4.76,-13.13 c 0,-12.71 -11.87,-23 -26.5,-23 -14.63,0 -26.5,10.29 -26.5,23 a 21,21 0 0 0 5.56,14.08 q -7.85,0.75 -16.56,1.92 l -11,59 51,7 81,-12 -7.17,-14.35 46.17,6.34 z" />
        <path
           id="path1628"
           opacity="0.2"
           transform="translate(-82.63,-96.65)"
           d="m 902.88,523.35 -12,-24 c 0,0 5.26,-24.28 -37.5,-31.42 -2.37,-10.59 -13.11,-18.58 -26,-18.58 -12.58,0 -23.1,7.6 -25.82,17.8 -6.14,0.53 -12.68,1.25 -19.68,2.2 l -9.78,52.44 -1.22,-2.44 c 0,0 6.21,-28.68 -49.76,-32.87 a 20.82,20.82 0 0 0 4.76,-13.13 c 0,-12.71 -11.87,-23 -26.5,-23 -14.63,0 -26.5,10.29 -26.5,23 a 21,21 0 0 0 5.56,14.08 q -7.85,0.75 -16.56,1.92 l -11,59 51,7 81,-12 -7.17,-14.35 46.17,6.34 z" />
        <path
           id="path1630"
           fill="#6c63ff"
           transform="translate(-82.63,-96.65)"
           d="m 730.86,470.23 c 0,0 -8,-44.88 29,-45.88 37,-1 25,65 25,65 0,0 28,6 30,17 2,11 -97,14 -97,14 z" />
        <path
           id="path1632"
           fill="#36334a"
           transform="translate(-82.63,-96.65)"
           d="m 665.88,707.35 c 0,53 -39.4,96 -88,96 -48.6,0 -88,-43 -88,-96 0,-53 39.89,-104.5 88.5,-104.5 48.61,0 87.5,51.48 87.5,104.5 z" />
        <ellipse
           id="ellipse1634"
           opacity="0.1"
           ry="80.989998"
           rx="70"
           cy="614.70001"
           cx="495.25" />
        <ellipse
           id="ellipse1636"
           fill="#36334a"
           ry="96"
           rx="88"
           cy="601.69"
           cx="108.25" />
        <path
           id="path1638"
           fill="#36334a"
           transform="translate(-82.63,-96.65)"
           d="m 340.88,469.35 c 0,0 -41,2 -39,24 2,22 35,6 35,6 z" />
        <path
           id="path1640"
           fill="#3f3d56"
           transform="translate(-82.63,-96.65)"
           d="m 682,506 16.88,-112.65 c 0,0 4,-14 -50,-14 0,0 -173,-11 -217,7 0,0 -51,19 -122,117 0,0 365.12,8.65 372.12,2.65 z" />
        <path
           id="path1642"
           fill="#36334a"
           transform="translate(-82.63,-96.65)"
           d="m 675.88,388.35 -31,123 -19.44,-0.47 -92,-2.24 -205.19,-5 c -0.57,-9.72 96.6,-110.29 96.6,-110.29 z" />
        <path
           id="path1644"
           opacity="0.2"
           fill="#6c63ff"
           transform="translate(-82.63,-96.65)"
           d="m 533.47,508.64 8.38,-32.4 c 0,0 -8,-44.89 29,-45.89 37,-1 25,65 25,65 0,0 25.5,5.47 29.56,15.53 z" />
        <path
           id="path1646"
           fill="#3f3d56"
           transform="translate(-82.63,-96.65)"
           d="m 1030.38,658.85 c -6,-58 -43.5,-70.5 -43.5,-70.5 -36,-2 -60,135 -60,135 l -277,25 c 0,0 9.5,-116.5 -57.5,-135.5 -67,-19 -84.5,117.5 -87.5,136.5 -3,19 -404,-2 -415,-10 -11,-8 -7,-85 -4,-91 3,-6 11,-33 11,-33 0,-6.44 3.08,-14.58 5.64,-20.23 1.8,-4 3.36,-6.77 3.36,-6.77 8.69,-49.28 53.81,-61.21 56.84,-62 h 0.16 c 12,-12 123,-20 123,-20 l 42,-8 341.47,6.71 14.53,0.29 173.6,-8.35 117.4,-5.65 c 27,0 41,68 41,68 25,60 14.5,99.5 14.5,99.5 z" />
        <ellipse
           id="ellipse1648"
           opacity="0.1"
           transform="rotate(-21.92,164.55319,735.05935)"
           ry="32.23"
           rx="51.48"
           cy="570.04999"
           cx="455.39001" />
        <ellipse
           id="ellipse1650"
           fill="#f2f2f2"
           transform="rotate(-21.92,162.54301,731.05379)"
           ry="32.23"
           rx="51.48"
           cy="566.04999"
           cx="453.39001" />
        <path
           id="path1652"
           opacity="0.1"
           transform="translate(-82.63,-96.65)"
           d="m 164.72,528.39 c -0.51,11 -5.44,24.88 -14.31,38.25 -14.27,21.52 -33.84,34.19 -45.89,30.48 1.8,-4 3.36,-6.77 3.36,-6.77 8.69,-49.28 53.81,-61.21 56.84,-61.96 z" />
        <path
           id="path1654"
           fill="#f2f2f2"
           transform="translate(-82.63,-96.65)"
           d="m 161.72,526.39 c -0.51,11 -5.44,24.88 -14.31,38.25 -14.27,21.52 -33.84,34.19 -45.89,30.48 1.8,-4 3.36,-6.77 3.36,-6.77 8.69,-49.28 53.81,-61.21 56.84,-61.96 z" />
        <polygon
           id="polygon1656"
           fill="#36334a"
           points="136.25,448.69 232.25,448.69 219.25,459.69 140.25,459.69 " />
        <rect
           id="rect1658"
           fill="#36334a"
           height="38"
           width="130"
           y="540.69"
           x="71.25" />
        <circle
           id="circle1660"
           opacity="0.1"
           r="18"
           cy="597.69"
           cx="341.25" />
        <circle
           id="circle1662"
           fill="#f2f2f2"
           r="18"
           cy="594.69"
           cx="339.25" />
        <ellipse
           id="ellipse1664"
           opacity="0.1"
           ry="19"
           rx="9"
           cy="583.69"
           cx="14.25" />
        <ellipse
           id="ellipse1666"
           fill="#f2f2f2"
           ry="19"
           rx="9"
           cy="582.69"
           cx="11.25" />
        <path
           id="path1668"
           fill="#36334a"
           transform="translate(-82.63,-96.65)"
           d="m 886.88,599.35 c -11,34 -12,87 -12,87 l -4,14 -195,22 c 0,0 1,-98 4,-144 2.11,-32.45 -5.72,-59.92 -10.53,-73.29 l 14.53,0.29 173.6,-8.35 c 29,20.33 39.27,71.82 29.4,102.35 z" />
        <path
           id="path1672"
           fill="#36334a"
           transform="translate(-82.63,-96.65)"
           d="m 668.88,501.35 c 0,0 5,22 29,15 l 8,-31 -16,-9 z" />
        <path
           id="path1674"
           fill="#36334a"
           transform="translate(-82.63,-96.65)"
           d="m 698.27,456.68 c 11,-6.52 28.45,-12.22 45.71,1.47 a 20.4,20.4 0 0 1 5.89,24.54 c -5.65,12.23 -19.06,25.5 -50.37,9.61 a 20.2,20.2 0 0 1 -7.62,-6.74 l -0.16,-0.24 a 20.3,20.3 0 0 1 6.55,-28.64 z" />
        <circle
           id="circle1676"
           fill="#f2f2f2"
           r="20"
           cy="610.19"
           cx="495.75" />
        <ellipse
           id="ellipse1678"
           fill="#f2f2f2"
           ry="20"
           rx="11"
           cy="574.19"
           cx="908.75" />
        <rect
           id="rect1680"
           fill="#36334a"
           rx="12"
           height="35"
           width="26"
           y="548.69"
           x="482.25" />
        <path
           id="path1682"
           fill="#36334a"
           d="m 908.75,510.19 v 0 a 7,7 0 0 1 7,7 v 16 a 12,12 0 0 1 -12,12 v 0 a 7,7 0 0 1 -7,-7 v -16 a 12,12 0 0 1 12,-12 z" />
        <path
           id="path1684"
           fill="#36334a"
           transform="translate(-82.63,-96.65)"
           d="m 991.38,734.85 v 0 a 12,12 0 0 1 -12,-12 v -11 a 12,12 0 0 1 12,-12 v 0 c 6.6,0 6,5.4 6,12 v 11 c -0.01,6.6 0.62,12 -6,12 z" />
        <path
           id="path1686"
           fill="#36334a"
           d="m 878.75,556.19 v 0 a 12,12 0 0 1 12,12 v 15 a 8,8 0 0 1 -8,8 v 0 a 12,12 0 0 1 -12,-12 v -15 a 8,8 0 0 1 8,-8 z" />
        <path
           id="path1688"
           fill="#36334a"
           transform="translate(-82.63,-96.65)"
           d="m 1029.88,665.85 c 0,1.72 0,3.44 -0.11,5.14 a 121.57,121.57 0 0 1 -2.38,19.69 12.21,12.21 0 0 1 -2,0.17 12,12 0 0 1 -12,-12 v -11 a 12,12 0 0 1 12,-12 11.71,11.71 0 0 1 3.1,0.41 c 0.36,0.1 0.72,0.21 1.06,0.34 0.22,3.04 0.33,6.13 0.33,9.25 z" />
        <rect
           id="rect1690"
           fill="#36334a"
           rx="12"
           height="35"
           width="26"
           y="591.19"
           x="532.75" />
        <rect
           id="rect1692"
           fill="#36334a"
           rx="12"
           height="35"
           width="26"
           y="591.19"
           x="434.75" />
        <rect
           id="rect1694"
           fill="#36334a"
           rx="12"
           height="35"
           width="26"
           y="643.19"
           x="482.75" />
        <path
           id="path1696"
           fill="#ff6584"
           transform="translate(-82.63,-96.65)"
           d="m 927.64,302.66 a 16.42,16.42 0 0 1 -1,5.59 16.6,16.6 0 0 1 -31.09,0.44 16.33,16.33 0 0 1 -1.14,-6 16.6,16.6 0 0 1 33.2,0 z" />
        <path
           id="path1698"
           fill="#ff6584"
           transform="translate(-82.63,-96.65)"
           d="m 897.78,306.8 a 16.6,16.6 0 0 1 6.46,-22.57 16.43,16.43 0 0 1 6,-2 16.6,16.6 0 1 0 1.4,33.07 16.59,16.59 0 0 1 -13.86,-8.5 z" />
        <path
           id="path1740"
           opacity="0.1"
           transform="translate(-82.63,-96.65)"
           d="m 879.91,367.58 a 161.19,161.19 0 0 1 -1.77,-20.58 152.23,152.23 0 0 0 1.77,24.1 c 0,0 10.08,6.52 17.79,2.37 0,0 -0.13,-1.28 -0.27,-3.43 -7.67,3.96 -17.52,-2.46 -17.52,-2.46 z" />
        <path
           id="path1742"
           opacity="0.1"
           transform="translate(-82.63,-96.65)"
           d="m 945.72,365.8 c -3.31,6.07 -13.82,3.41 -15.25,3 -0.07,2.2 -0.16,3.51 -0.16,3.51 0,0 11.86,3.56 15.41,-3 0.74,-1.35 1.12,-5.14 1,-10.21 -0.1,3.31 -0.45,5.69 -1,6.7 z" />
        <path
           id="path1744"
           stroke-width="4"
           stroke-miterlimit="10"
           stroke="#3f3d56"
           fill="none"
           transform="translate(-82.63,-96.65)"
           d="m 1067.29,749.54 c 2.74,-5.07 -0.37,-11.29 -3.94,-15.81 -3.57,-4.52 -7.93,-9.23 -7.84,-15 0.14,-8.28 8.93,-13.17 16,-17.56 a 77.94,77.94 0 0 0 14.33,-11.52 21.21,21.21 0 0 0 4.4,-5.89 c 1.45,-3.24 1.41,-6.93 1.32,-10.48 q -0.45,-17.73 -1.75,-35.43" />
        <path
           id="path1746"
           fill="#6c63ff"
           transform="translate(-82.63,-96.65)"
           d="m 1103.11,637.21 a 12.9,12.9 0 0 0 -6.45,-10.59 l -2.89,5.72 0.09,-6.93 a 13.08,13.08 0 0 0 -4.26,-0.51 12.92,12.92 0 1 0 13.51,12.31 z" />
        <path
           id="path1748"
           fill="#6c63ff"
           transform="translate(-82.63,-96.65)"
           d="m 1080.07,724.66 a 12.92,12.92 0 0 1 -24.39,-5.3 12.75,12.75 0 0 1 0.84,-5.25 12.93,12.93 0 0 1 24.18,0.14 l -8.07,6.57 8.87,-2.06 a 12.79,12.79 0 0 1 -1.43,5.9 z" />
        <path
           id="path1750"
           fill="#6c63ff"
           transform="translate(-82.63,-96.65)"
           d="m 1073.69,699.57 a 12.92,12.92 0 0 1 -13.51,-12.31 12.75,12.75 0 0 1 1.12,-5.88 13,13 0 0 1 8.29,-7.16 l -0.06,5.33 2.92,-5.8 v 0 a 12.92,12.92 0 0 1 13.5,12.31 12.67,12.67 0 0 1 -0.55,4.41 12.92,12.92 0 0 1 -11.71,9.1 z" />
        <path
           id="path1752"
           fill="#6c63ff"
           transform="translate(-82.63,-96.65)"
           d="m 1105.06,678.7 a 12.92,12.92 0 0 1 -13.51,-12.31 12.7,12.7 0 0 1 1.22,-6.12 12.91,12.91 0 0 1 18,-5.75 l -2.28,6.25 4.69,-4.51 a 12.91,12.91 0 0 1 4.18,8.92 12.67,12.67 0 0 1 -0.33,3.56 12.92,12.92 0 0 1 -11.97,9.96 z" />
        <path
           id="path1754"
           opacity="0.1"
           transform="translate(-82.63,-96.65)"
           d="m 1101.38,640.65 c -3,0.33 -5.89,1.25 -8.88,1.44 -2.99,0.19 -6.28,-0.53 -8.17,-2.86 a 40.27,40.27 0 0 1 -2.39,-4.2 9.28,9.28 0 0 0 -3.25,-3.07 12.77,12.77 0 0 0 -1.39,6.45 12.92,12.92 0 0 0 25.54,2.13 c -0.49,0.02 -0.98,0.06 -1.46,0.11 z" />
        <path
           id="path1756"
           opacity="0.1"
           transform="translate(-82.63,-96.65)"
           d="m 1105.06,678.7 a 12.92,12.92 0 0 1 -13.51,-12.31 12.7,12.7 0 0 1 1.22,-6.12 9.6,9.6 0 0 1 2.6,2.6 c 0.92,1.39 1.47,3 2.56,4.27 2,2.36 5.45,3.14 8.57,3 3.12,-0.14 6.12,-1 9.23,-1.31 0.43,0 0.87,-0.07 1.3,-0.08 a 12.92,12.92 0 0 1 -11.97,9.95 z" />
        <path
           id="path1758"
           opacity="0.1"
           transform="translate(-82.63,-96.65)"
           d="m 1073.69,699.57 a 12.92,12.92 0 0 1 -13.51,-12.31 12.75,12.75 0 0 1 1.12,-5.88 10.65,10.65 0 0 1 2.7,2.62 c 1,1.42 1.63,3 2.8,4.36 2.18,2.43 5.85,3.28 9.15,3.21 3.3,-0.07 6.28,-0.86 9.46,-1.1 a 12.92,12.92 0 0 1 -11.72,9.1 z" />
        <path
           id="path1760"
           opacity="0.1"
           transform="translate(-82.63,-96.65)"
           d="m 1080.07,724.66 a 12.92,12.92 0 0 1 -24.39,-5.3 12.75,12.75 0 0 1 0.84,-5.25 13,13 0 0 1 2.83,2.53 c 1.23,1.5 2,3.2 3.46,4.59 2.64,2.6 6.91,3.67 10.7,3.77 a 57,57 0 0 0 6.56,-0.34 z" />
        <path
           id="path1762"
           fill="#656380"
           transform="translate(-82.63,-96.65)"
           d="m 1047.81,743.7 c 0,0 10.19,-0.31 13.27,-2.5 3.08,-2.19 15.68,-4.8 16.45,-1.29 0.77,3.51 15.32,17.46 3.81,17.55 -11.51,0.09 -26.75,-1.79 -29.82,-3.66 -3.07,-1.87 -3.71,-10.1 -3.71,-10.1 z" />
        <path
           id="path1764"
           opacity="0.2"
           transform="translate(-82.63,-96.65)"
           d="m 1081.54,756.24 c -11.51,0.09 -26.75,-1.8 -29.82,-3.66 -2.33,-1.43 -3.26,-6.53 -3.57,-8.89 h -0.34 c 0,0 0.64,8.23 3.71,10.1 3.07,1.87 18.31,3.75 29.82,3.66 3.32,0 4.47,-1.21 4.41,-3 -0.46,1.11 -1.75,1.77 -4.21,1.79 z" />
      </g>
      <text
         id="text1600-4"
         y="283.97269"
         x="-1258.2666"
         style="font-style:normal;font-weight:normal;font-size:66.9215px;line-height:1.25;font-family:sans-serif;fill:#000000;fill-opacity:1;stroke:none;stroke-width:2.0913"
         xml:space="preserve"><tspan
           style="font-style:normal;font-variant:normal;font-weight:normal;font-stretch:normal;font-size:66.9215px;font-family:Poppins;-inkscape-font-specification:Poppins;stroke-width:2.0913"
           y="283.97269"
           x="-1258.2666"
           id="tspan1598-7">Yazılım Geliştirici Yetiştirme Kampı 12.Gün</tspan></text>
      <text
         id="text1600-7"
         y="469.17523"
         x="-1261.8995"
         style="font-style:normal;font-weight:normal;font-size:133.843px;line-height:1.25;font-family:sans-serif;fill:#000000;fill-opacity:1;stroke:none;stroke-width:2.0913"
         xml:space="preserve"><tspan
           style="font-style:normal;font-variant:normal;font-weight:bold;font-stretch:normal;font-size:133.843px;font-family:Poppins;-inkscape-font-specification:'Poppins Bold';stroke-width:2.0913"
           y="469.17523"
           x="-1261.8995"
           id="tspan1598-4">Araç Kiralama Sistemi</tspan></text>
    </g>
  </g>
</svg>
